<?xml version="1.0" standalone="no"?>
<!DOCTYPE svg PUBLIC "-//W3C//DTD SVG 20010904//EN"
 "http://www.w3.org/TR/2001/REC-SVG-20010904/DTD/svg10.dtd">
<svg version="1.0" xmlns="http://www.w3.org/2000/svg"
 width="500.000000pt" height="500.000000pt" viewBox="0 0 500.000000 500.000000"
 preserveAspectRatio="xMidYMid meet">
<metadata>
Created by potrace 1.14, written by Peter Selinger 2001-2017
</metadata>
<g transform="translate(0.000000,500.000000) scale(0.100000,-0.100000)"
fill="#000000" stroke="none">
<path d="M2659 4568 c-40 -22 -68 -48 -100 -93 -24 -35 -47 -61 -51 -58 -5 2
-8 -1 -8 -7 0 -6 -4 -9 -8 -6 -22 13 -182 -95 -182 -123 0 -11 -3 -12 -8 -4
-5 8 -13 9 -22 3 -8 -6 -12 -10 -7 -10 4 0 -7 -16 -24 -35 -25 -27 -35 -32
-49 -25 -13 7 -25 4 -44 -11 -49 -38 -3 -44 65 -9 24 13 24 13 6 -8 -14 -15
-15 -21 -5 -25 7 -4 1 -4 -15 -2 -15 2 -25 0 -22 -5 3 -5 -8 -7 -24 -5 -22 2
-28 0 -24 -11 3 -8 9 -11 14 -8 14 8 39 -15 39 -37 0 -12 5 -16 15 -13 8 4 12
10 9 15 -3 5 0 17 6 26 10 17 10 16 8 -2 -2 -12 2 -19 10 -17 6 1 12 -5 12
-15 0 -9 -3 -14 -6 -11 -3 3 -16 -4 -29 -16 -24 -22 -85 -32 -85 -14 0 5 -5 6
-10 3 -6 -4 -8 -11 -5 -16 3 -5 0 -6 -8 -3 -25 9 -55 -36 -72 -109 -21 -93
-72 -252 -95 -302 -11 -22 -27 -67 -36 -100 -9 -33 -23 -70 -31 -81 -8 -12
-29 -64 -47 -115 -18 -52 -42 -114 -53 -139 -11 -25 -24 -60 -28 -77 -3 -18
-11 -35 -16 -38 -5 -4 -9 -15 -9 -25 0 -11 -13 -34 -29 -52 -27 -32 -81 -167
-81 -204 0 -26 -31 -104 -41 -104 -35 0 48 -145 89 -156 13 -4 21 -12 19 -18
-3 -7 31 -39 76 -72 44 -32 99 -80 121 -106 23 -27 44 -48 49 -48 10 0 84 -48
127 -83 54 -43 55 -43 79 -57 13 -6 27 -8 31 -3 17 18 52 134 47 153 -3 13 0
23 8 26 13 6 25 53 30 123 1 20 7 63 13 96 6 33 14 78 17 100 8 56 25 116 40
145 11 20 52 178 80 308 4 15 13 22 28 22 13 0 33 9 44 20 l22 20 50 -40 c32
-25 51 -49 52 -63 4 -63 17 -125 35 -158 8 -16 12 -29 10 -29 -3 0 2 -16 10
-35 7 -19 17 -51 20 -72 3 -21 12 -50 20 -65 8 -15 16 -52 18 -82 2 -30 7 -60
11 -66 9 -14 45 -140 40 -140 -2 0 2 -15 10 -34 8 -18 17 -55 21 -82 3 -27 14
-69 23 -94 21 -57 55 -63 80 -13 9 18 20 33 25 33 20 0 95 58 120 93 15 20 35
37 44 37 19 0 52 25 122 92 47 45 88 127 74 149 -7 12 6 53 14 44 4 -4 7 -12
8 -18 0 -7 2 -20 2 -30 2 -17 4 -17 28 2 15 12 33 21 40 21 16 0 84 64 84 79
0 17 -57 101 -64 94 -4 -4 -4 9 -1 29 4 27 -2 52 -24 101 -16 35 -32 82 -36
103 -15 90 -16 94 -36 94 -10 0 -19 7 -19 15 0 33 -100 392 -138 495 -3 8 -6
17 -7 20 -26 97 -71 209 -104 260 -5 8 -20 58 -32 110 -12 52 -37 140 -56 195
-43 126 -60 190 -67 244 -5 43 -33 98 -44 87 -7 -8 -53 22 -75 51 -10 13 -21
23 -25 22 -4 0 -32 -14 -63 -31z"/>
<path d="M2210 4351 c0 -5 -25 -21 -55 -35 -30 -15 -57 -31 -60 -36 -7 -11 32
-22 89 -25 38 -1 43 2 68 39 16 23 28 37 28 32 0 -5 7 -2 16 5 14 12 14 14 -3
20 -26 11 -83 11 -83 0z"/>
<path d="M2154 4109 c-4 -7 -3 -9 4 -5 5 3 13 0 15 -6 4 -9 6 -10 6 -1 1 17
-16 25 -25 12z"/>
<path d="M1350 2717 c0 -3 10 -16 23 -29 46 -47 76 -95 96 -155 21 -62 52
-124 79 -156 22 -25 9 -30 -21 -7 -33 26 -42 25 -22 -2 8 -13 20 -39 25 -59 5
-19 26 -52 46 -72 l36 -36 -37 10 c-34 10 -67 2 -37 -8 7 -3 22 -22 33 -44 11
-22 39 -53 62 -70 40 -29 40 -30 12 -23 -16 4 -38 11 -47 15 -30 16 -30 10 2
-23 17 -18 38 -45 48 -60 9 -16 20 -28 24 -28 4 0 8 -6 8 -14 0 -8 33 -47 73
-88 54 -54 89 -79 133 -97 105 -43 334 -185 320 -198 -3 -3 -11 -1 -18 5 -12
9 -93 43 -223 93 -27 10 -62 28 -77 39 -48 36 -50 40 51 -120 43 -67 99 -128
257 -277 132 -125 180 -231 195 -428 12 -148 13 -155 28 -182 19 -37 30 -26
16 15 -15 43 -14 48 13 31 17 -11 19 -24 19 -111 0 -54 -4 -101 -8 -104 -5 -3
-5 -13 0 -22 5 -10 8 -58 7 -107 -2 -75 -7 -99 -29 -142 -36 -70 -50 -133 -30
-133 8 0 28 -9 44 -21 l29 -20 26 20 c15 12 32 21 39 21 20 0 8 63 -26 136
-27 59 -31 81 -31 150 -1 45 2 87 6 93 4 6 4 16 0 23 -4 7 -8 56 -8 109 -1 91
0 96 23 107 22 11 23 10 17 -20 -3 -18 -12 -36 -19 -40 -8 -5 -8 -8 -1 -8 18
0 32 23 39 60 3 19 8 44 12 55 3 11 7 51 8 90 2 76 9 116 31 183 12 38 27 67
71 146 6 11 42 50 79 86 211 203 243 238 288 315 26 44 54 91 63 105 17 24 17
25 -2 9 -30 -25 -102 -59 -109 -52 -3 4 -6 2 -6 -4 0 -6 -10 -13 -22 -16 -26
-6 -164 -62 -190 -77 -10 -6 -18 -6 -18 -1 0 18 138 102 296 180 114 56 147
86 246 218 38 51 73 93 78 93 6 0 10 4 10 10 0 5 -19 3 -42 -6 -49 -17 -58
-13 -24 10 34 21 76 68 76 83 0 6 14 23 32 37 l32 25 -39 -9 c-64 -15 -73 -12
-43 13 15 12 36 42 48 67 12 25 26 53 31 62 14 28 11 29 -28 6 -39 -23 -38
-18 3 37 12 17 35 64 50 105 28 78 76 158 99 166 7 3 16 12 19 20 5 13 3 13
-13 2 -14 -11 -115 -98 -165 -143 -6 -5 -34 -28 -61 -50 -28 -21 -52 -42 -55
-45 -3 -3 -41 -36 -85 -74 -78 -67 -187 -161 -209 -181 -6 -5 -40 -35 -76 -65
-36 -30 -78 -67 -94 -82 -43 -41 -82 -54 -101 -35 -10 10 -27 15 -47 12 -49
-6 -52 -20 -3 -17 44 4 45 3 45 -25 0 -41 -49 -112 -127 -183 -54 -49 -69 -58
-80 -48 -11 8 -13 24 -10 50 3 21 2 36 -2 33 -4 -2 -8 11 -9 30 -2 41 15 47
21 8 2 -16 5 3 6 40 1 48 -4 75 -15 93 -10 14 -19 48 -21 77 -2 28 -8 56 -13
61 -6 6 -10 6 -11 0 -9 -104 -17 -140 -33 -153 -12 -10 -13 -22 -6 -116 l3
-30 7 35 c7 32 13 25 13 -15 0 -30 -3 -36 -15 -29 -7 5 -8 3 -2 -7 13 -22 13
-68 -2 -79 -9 -8 -22 -2 -51 22 -69 59 -124 122 -145 165 -17 36 -18 45 -6 61
15 22 23 23 56 11 13 -5 22 -5 22 1 0 6 -3 10 -7 11 -5 0 -20 3 -35 5 -15 3
-32 -2 -41 -11 -21 -20 -33 -19 -70 7 -27 19 -278 230 -329 277 -9 9 -23 21
-30 26 -12 9 -151 129 -303 259 -33 28 -71 62 -86 76 -38 37 -59 53 -59 47z
m1096 -1689 c3 -29 8 -56 10 -60 3 -4 7 -54 10 -113 5 -104 4 -105 -16 -93
-22 14 -35 42 -25 58 3 5 1 19 -5 31 -11 20 -12 55 -6 179 5 86 5 88 16 68 6
-9 13 -40 16 -70z m91 -33 c-4 -58 -9 -110 -12 -115 -4 -6 -6 -29 -7 -53 0
-43 -12 -77 -27 -77 -14 0 9 267 27 325 1 3 2 10 2 15 0 6 5 10 11 10 8 0 10
-31 6 -105z"/>
<path d="M3500 2230 c-11 -22 -24 -40 -29 -40 -17 0 -77 -95 -100 -157 -13
-35 -29 -63 -35 -63 -16 0 -46 -35 -71 -83 -11 -21 -33 -52 -50 -70 -46 -49
-61 -79 -59 -115 1 -26 -1 -30 -11 -22 -14 11 -55 -6 -55 -22 0 -4 -10 -19
-22 -33 -12 -14 -23 -31 -24 -39 -1 -7 -18 -35 -37 -63 -28 -40 -33 -53 -24
-68 6 -11 11 -34 12 -53 2 -21 18 -53 45 -90 23 -31 47 -68 53 -82 5 -14 25
-55 43 -92 26 -53 34 -85 38 -145 3 -42 1 -82 -4 -88 -5 -6 -5 -27 0 -50 4
-22 11 -60 14 -84 6 -44 18 -61 45 -61 11 0 11 -3 1 -15 -7 -8 -19 -15 -26
-15 -8 0 -14 -10 -14 -22 0 -13 -9 -47 -20 -76 -11 -30 -25 -75 -31 -100 -9
-44 -39 -80 -72 -86 -61 -13 -76 -21 -143 -76 -7 -5 -14 -7 -17 -4 -2 2 -10
-3 -18 -13 -13 -15 -12 -16 6 -9 162 61 231 64 395 17 82 -24 165 -41 193 -40
15 0 17 2 7 6 -8 3 -42 18 -75 34 -72 34 -56 48 34 29 42 -9 68 -9 96 -1 38
10 197 8 245 -3 14 -3 52 -15 85 -25 64 -20 95 -17 51 6 -44 23 -30 33 48 33
41 0 78 5 81 10 8 12 88 13 135 1 19 -5 63 -11 97 -14 60 -4 62 -4 52 15 -18
33 0 33 32 0 35 -36 64 -45 31 -10 -11 13 -23 35 -27 49 -5 21 -2 27 13 31 21
6 29 3 107 -46 26 -15 61 -30 79 -32 l31 -4 -32 14 c-18 8 -33 20 -33 27 0 18
62 2 80 -20 16 -19 70 -35 70 -20 0 5 -4 9 -9 9 -5 0 -33 15 -61 34 -29 19
-58 32 -66 29 -23 -9 -80 17 -94 42 -7 14 -17 25 -21 25 -14 0 -126 109 -165
160 -21 28 -41 50 -45 50 -4 0 -22 -14 -39 -32 l-32 -31 16 38 c9 21 20 43 25
49 23 30 19 62 -16 135 -19 42 -36 81 -38 86 -16 71 -77 168 -100 159 -10 -4
-16 5 -21 33 -3 21 -12 45 -20 53 -31 36 -109 160 -138 220 -27 56 -60 148
-61 172 0 4 -6 13 -12 20 -7 6 -13 18 -13 25 0 17 -36 31 -72 29 -34 -3 -35 9
-8 85 l19 56 -50 129 c-28 71 -58 152 -66 179 -8 28 -21 64 -29 82 -8 17 -14
37 -14 45 0 15 -19 38 -32 38 -4 0 -17 -18 -28 -40z"/>
<path d="M1353 2105 c-24 -23 -43 -47 -43 -52 0 -6 -6 -16 -14 -22 -18 -15
-15 -129 4 -141 11 -7 10 -13 -5 -36 -17 -27 -17 -27 6 -45 20 -15 21 -19 9
-34 -18 -22 -37 -91 -46 -165 -8 -64 -49 -173 -93 -249 -18 -29 -43 -91 -56
-137 -25 -85 -102 -254 -116 -254 -4 0 -29 -30 -55 -68 -26 -37 -62 -83 -79
-103 -25 -28 -34 -50 -43 -108 -7 -40 -10 -77 -7 -82 4 -5 -1 -16 -9 -24 -11
-12 -13 -22 -6 -40 5 -14 7 -25 4 -25 -4 0 4 -15 18 -33 13 -17 35 -57 48 -87
28 -62 33 -68 63 -66 12 1 25 -3 29 -9 5 -6 8 -6 8 3 0 15 34 16 61 1 20 -10
20 -11 -2 -30 -12 -10 -27 -19 -32 -19 -6 0 -8 -2 -6 -5 3 -2 25 2 49 9 25 7
70 17 100 21 73 11 267 14 306 5 20 -5 40 -2 55 6 28 16 69 18 69 4 0 -5 -13
-16 -30 -25 -37 -19 -38 -25 -2 -20 15 2 30 4 33 4 3 1 15 10 26 20 25 24 38
26 85 17 51 -11 68 2 29 22 -47 22 -29 26 19 4 24 -11 60 -18 83 -17 23 1 57
3 76 4 l34 1 -24 26 -24 27 30 -7 c17 -4 37 -13 45 -21 8 -7 33 -16 55 -19 22
-3 58 -9 80 -12 22 -3 43 -8 47 -10 4 -2 9 0 12 4 3 5 -13 14 -35 21 -51 16
-145 75 -159 101 -6 11 -17 20 -25 20 -18 0 -23 9 -30 51 -13 74 -26 122 -41
152 -12 22 -14 43 -10 76 10 64 9 83 -4 91 -13 8 -1 42 33 92 17 26 28 62 36
120 20 148 23 162 43 220 10 31 20 81 21 112 2 49 -2 59 -29 88 -17 18 -37 49
-45 68 -25 65 -135 146 -169 125 -5 -3 -10 3 -10 14 0 12 7 21 15 21 11 0 15
12 15 47 0 44 -4 51 -50 95 -56 53 -95 81 -119 84 -9 2 -25 15 -36 30 -11 15
-42 57 -69 93 -26 36 -53 75 -59 88 -6 13 -13 22 -16 21 -3 0 -25 -20 -48 -43z"/>
<path d="M650 529 c-30 -33 -64 -62 -76 -65 -13 -3 -32 -25 -47 -52 -22 -42
-23 -49 -10 -61 8 -7 29 -17 46 -22 18 -4 57 -15 87 -23 69 -20 96 -20 104 -1
3 8 12 15 20 15 34 0 64 23 68 51 5 30 -7 54 -47 99 -13 14 -26 40 -30 58 -4
21 -16 37 -34 46 -27 14 -28 13 -81 -45z"/>
</g>
</svg>
